<svg xmlns="http://www.w3.org/2000/svg" viewBox="0 0 94 20" width="94"  height="20" ><path d="M38.988 4v12h-2.084V6.594h-.033L33.147 16h-1.38L27.95 6.594h-.025V16H26V4h2.988l3.448 8.895h.05L36.126 4h2.862zm1.743.912c0-.335.121-.615.364-.841.242-.226.531-.34.866-.34.357 0 .653.117.887.348.234.232.351.51.351.833 0 .329-.12.605-.36.828-.24.223-.532.335-.878.335s-.638-.113-.875-.339a1.096 1.096 0 0 1-.355-.824zm2.234 2.485V16H40.94V7.397h2.025zm6.143 7.13c.3 0 .633-.07.995-.209.363-.14.698-.323 1.005-.552v1.882c-.324.185-.69.324-1.1.419-.41.095-.862.142-1.352.142-1.267 0-2.296-.4-3.088-1.2-.793-.801-1.189-1.824-1.189-3.068 0-1.383.405-2.523 1.214-3.419.809-.895 1.955-1.343 3.44-1.343.379 0 .762.05 1.15.147.388.098.696.21.925.339v1.941a4.142 4.142 0 0 0-.959-.531 2.766 2.766 0 0 0-1-.188c-.797 0-1.442.26-1.933.778-.49.519-.736 1.219-.736 2.1 0 .87.235 1.549.707 2.034.471.486 1.112.728 1.92.728zm7.765-7.272c.162 0 .307.011.436.033s.237.05.326.084v2.05a1.768 1.768 0 0 0-.464-.221 2.3 2.3 0 0 0-.741-.105c-.497 0-.916.21-1.26.627-.343.419-.514 1.063-.514 1.934V16H52.63V7.397h2.025v1.356h.033c.184-.469.463-.835.837-1.1.374-.265.823-.398 1.347-.398zm.872 4.57c0-1.423.401-2.55 1.205-3.382.803-.83 1.919-1.247 3.347-1.247 1.345 0 2.395.4 3.15 1.201.757.801 1.135 1.882 1.135 3.243 0 1.395-.402 2.505-1.205 3.33-.804.827-1.897 1.24-3.28 1.24-1.334 0-2.393-.393-3.177-1.176-.783-.784-1.175-1.854-1.175-3.21zm2.108-.068c0 .898.204 1.585.611 2.059.407.474.99.711 1.75.711.736 0 1.296-.237 1.681-.711s.578-1.177.578-2.109c0-.926-.2-1.625-.599-2.096-.399-.472-.958-.707-1.677-.707-.743 0-1.319.246-1.729.74-.41.494-.615 1.198-.615 2.113zm9.741-2.1c0 .29.092.517.277.682.184.164.59.372 1.221.623.81.324 1.377.688 1.703 1.092.327.405.49.894.49 1.469 0 .809-.311 1.459-.933 1.95-.622.49-1.463.736-2.523.736-.357 0-.752-.043-1.185-.13a5.28 5.28 0 0 1-1.1-.33v-1.992c.368.257.764.46 1.188.611.424.15.809.226 1.155.226.458 0 .795-.064 1.013-.192.217-.129.326-.343.326-.645 0-.279-.113-.514-.339-.707s-.654-.414-1.285-.665c-.747-.313-1.277-.664-1.59-1.055-.312-.39-.468-.887-.468-1.49 0-.775.308-1.412.925-1.911.616-.5 1.415-.75 2.397-.75a5.8 5.8 0 0 1 1.013.1c.374.068.686.155.937.26v1.925a4.33 4.33 0 0 0-.937-.46 3.128 3.128 0 0 0-1.063-.193c-.385 0-.685.076-.9.226a.717.717 0 0 0-.322.62zm4.56 2.167c0-1.423.402-2.55 1.206-3.38.803-.832 1.919-1.248 3.347-1.248 1.345 0 2.395.4 3.151 1.201.756.801 1.134 1.882 1.134 3.243 0 1.395-.402 2.505-1.205 3.33-.803.827-1.897 1.24-3.28 1.24-1.334 0-2.393-.393-3.176-1.176-.784-.784-1.176-1.854-1.176-3.21zm2.11-.067c0 .898.203 1.585.61 2.059.408.474.99.711 1.75.711.736 0 1.297-.237 1.682-.711s.577-1.177.577-2.109c0-.926-.2-1.625-.598-2.096-.4-.472-.959-.707-1.678-.707-.742 0-1.318.246-1.728.74-.41.494-.615 1.198-.615 2.113zM89.71 9.054h-3.016V16h-2.05V9.054h-1.44V7.397h1.44V6.201c0-.904.294-1.645.882-2.222.589-.578 1.343-.866 2.264-.866.245 0 .463.012.653.037.19.025.357.063.502.113v1.75a2.097 2.097 0 0 0-.352-.143 1.827 1.827 0 0 0-.577-.084c-.424 0-.75.133-.98.398-.228.265-.343.657-.343 1.176v1.037h3.016V5.464l2.034-.62v2.553h2.05v1.657h-2.05v4.025c0 .53.096.904.289 1.122.192.217.495.326.908.326.117 0 .258-.028.423-.084.164-.055.308-.122.43-.2v1.673c-.128.073-.341.14-.64.201a4.366 4.366 0 0 1-.883.092c-.853 0-1.493-.227-1.92-.682-.427-.454-.64-1.14-.64-2.054V9.054z" fill="#737474"></path><path fill="#F25022" d="M0 0h9.505v9.505H0z"></path><path fill="#7FBA00" d="M10.495 0H20v9.505h-9.505z"></path><path fill="#00A4EF" d="M0 10.495h9.505V20H0z"></path><path fill="#FFB900" d="M10.495 10.495H20V20h-9.505z"></path></svg>