<svg xmlns="http://www.w3.org/2000/svg" width="32" height="32" viewBox="-6 -6 32 32" fill="currentColor"><path d="M6.98804 2.06583L6.27134 2.28186C4.96781 2.67478 4.01042 3.78795 3.81695 5.13559C3.51998 7.20432 4.18421 9.62236 5.78466 12.3944C7.38174 15.1606 9.13964 16.9432 11.0749 17.723C12.3445 18.2346 13.7958 17.9591 14.7896 17.0179L15.3324 16.5039C16.0599 15.8149 16.1653 14.694 15.5791 13.8815L14.2225 12.0013C13.8468 11.4807 13.1814 11.2568 12.5675 11.4445L10.5168 12.0715L10.4638 12.0819C10.2376 12.1149 9.71638 11.6259 9.06625 10.4998C8.3861 9.32175 8.24514 8.63292 8.43292 8.45535L9.47627 7.48242C10.2582 6.75326 10.4892 5.60722 10.0508 4.63206L9.38939 3.16069C8.97749 2.24445 7.94986 1.77591 6.98804 2.06583ZM8.47731 3.57071L9.13877 5.04209C9.40161 5.62676 9.26309 6.31388 8.79427 6.75107L7.74837 7.72639C7.07928 8.35912 7.30089 9.44212 8.20022 10.9998C9.04643 12.4655 9.81842 13.1898 10.6479 13.0642L10.7723 13.0376L12.8599 12.4008C13.0645 12.3383 13.2863 12.4129 13.4115 12.5864L14.7681 14.4666C15.0613 14.8728 15.0085 15.4333 14.6448 15.7778L14.102 16.2918C13.3921 16.9641 12.3555 17.1609 11.4486 16.7955C9.75054 16.1112 8.14573 14.4839 6.65069 11.8944C5.15258 9.29963 4.54629 7.09248 4.80681 5.27769C4.945 4.31509 5.62885 3.51997 6.55994 3.23931L7.27664 3.02328C7.75755 2.87832 8.27137 3.11259 8.47731 3.57071Z"></path></svg>