<svg xmlns="http://www.w3.org/2000/svg" width="32" height="32" viewBox="-6 -6 32 32" fill="currentColor"><g><path d="M11.5 4C11.7761 4 12 4.22386 12 4.5C12 4.77614 11.7761 5 11.5 5H6.5C5.67157 5 5 5.67157 5 6.5V13.5C5 14.3284 5.67157 15 6.5 15H13.5C14.3284 15 15 14.3284 15 13.5V8.5C15 8.22386 15.2239 8 15.5 8C15.7761 8 16 8.22386 16 8.5V13.5C16 14.8807 14.8807 16 13.5 16H6.5C5.11929 16 4 14.8807 4 13.5V6.5C4 5.11929 5.11929 4 6.5 4H11.5ZM16.1514 2.85355C16.3467 2.65829 16.6632 2.65829 16.8585 2.85355C17.0538 3.04882 17.0538 3.3654 16.8585 3.56066L9.78744 10.6317L8.90355 10.8085L9.08033 9.92462L16.1514 2.85355Z"></path></g></svg>